<svg width="17" height="16" viewBox="0 0 17 16" fill="none" xmlns="http://www.w3.org/2000/svg">
<path d="M13.5328 7.33147C13.2295 6.64875 12.7885 6.03597 12.2375 5.53147L11.7828 5.11428C11.7674 5.10051 11.7488 5.09073 11.7287 5.08581C11.7086 5.08089 11.6876 5.08099 11.6675 5.08608C11.6475 5.09117 11.629 5.1011 11.6137 5.11501C11.5984 5.12892 11.5867 5.14638 11.5797 5.16585L11.3766 5.74866C11.25 6.11428 11.0172 6.48772 10.6875 6.85491C10.6656 6.87835 10.6406 6.8846 10.6234 6.88616C10.6063 6.88772 10.5797 6.8846 10.5562 6.86272C10.5344 6.84397 10.5234 6.81585 10.525 6.78772C10.5828 5.8471 10.3016 4.78616 9.68594 3.63147C9.17656 2.6721 8.46875 1.92366 7.58437 1.40178L6.93906 1.0221C6.85469 0.972098 6.74688 1.03772 6.75156 1.13616L6.78594 1.88616C6.80937 2.39866 6.75 2.85179 6.60938 3.22835C6.4375 3.68929 6.19062 4.11741 5.875 4.50179C5.65535 4.76891 5.40639 5.01053 5.13281 5.2221C4.47391 5.72861 3.93815 6.37762 3.56562 7.12054C3.19402 7.86993 3.00045 8.695 3 9.53147C3 10.269 3.14531 10.983 3.43281 11.6565C3.71042 12.3049 4.11103 12.8933 4.6125 13.3893C5.11875 13.8893 5.70625 14.283 6.36094 14.5565C7.03906 14.8408 7.75781 14.9846 8.5 14.9846C9.24219 14.9846 9.96094 14.8408 10.6391 14.558C11.2921 14.2862 11.886 13.8898 12.3875 13.3908C12.8938 12.8908 13.2906 12.3065 13.5672 11.658C13.8543 10.9864 14.0015 10.2634 14 9.53303C14 8.77053 13.8438 8.02991 13.5328 7.33147ZM11.6406 12.633C10.8016 13.4643 9.6875 13.9205 8.5 13.9205C7.3125 13.9205 6.19844 13.4643 5.35938 12.633C4.52344 11.8033 4.0625 10.7033 4.0625 9.53303C4.0625 8.85335 4.21563 8.20179 4.51719 7.59554C4.81094 7.00335 5.24844 6.47366 5.77969 6.06585C6.1185 5.80678 6.4258 5.50891 6.69531 5.17835C7.08594 4.70179 7.39219 4.17053 7.60469 3.60022C7.69185 3.36497 7.75519 3.12156 7.79375 2.87366C8.17031 3.22054 8.48594 3.63928 8.75 4.12991C9.27187 5.10803 9.5125 5.97835 9.46562 6.71897C9.45443 6.8934 9.48291 7.06811 9.54895 7.22994C9.61498 7.39178 9.71684 7.53654 9.84688 7.65335C9.95956 7.75514 10.0913 7.83352 10.2346 7.88395C10.3778 7.93438 10.5296 7.95584 10.6812 7.9471C10.9891 7.93147 11.2719 7.79554 11.4781 7.56585C11.6859 7.33304 11.8656 7.09554 12.0156 6.85335C12.2344 7.13304 12.4172 7.43772 12.5625 7.76585C12.8109 8.32522 12.9375 8.92053 12.9375 9.53303C12.9375 10.7033 12.4766 11.8049 11.6406 12.633Z" fill="white"/>
</svg>
